<svg width="73" height="76" viewBox="0 0 73 76" fill="none" xmlns="http://www.w3.org/2000/svg">
<rect width="73" height="76" rx="17" fill="#C9D9F5"/>
<path d="M18 53.8266V23.9128C18 22.8751 18.4448 21.8798 19.2367 21.146C20.0285 20.4122 21.1024 20 22.2222 20H51.7778C52.8976 20 53.9715 20.4122 54.7633 21.146C55.5552 21.8798 56 22.8751 56 23.9128V43.4771C56 44.5148 55.5552 45.5101 54.7633 46.2439C53.9715 46.9777 52.8976 47.3899 51.7778 47.3899H28.4732C27.8404 47.39 27.2157 47.5219 26.6452 47.7759C26.0748 48.0299 25.5733 48.3994 25.1778 48.8573L20.2568 54.5583C20.093 54.7485 19.8695 54.8868 19.6172 54.9542C19.3649 55.0215 19.0962 55.0145 18.8484 54.9341C18.6005 54.8538 18.3858 54.704 18.2338 54.5056C18.0818 54.3072 18.0001 54.0699 18 53.8266Z" stroke="#1D08FF" stroke-width="3"/>
<rect width="73" height="76" rx="17" fill="#F09617" fill-opacity="0.6"/>
<path d="M18 53.8266V23.9128C18 22.8751 18.4448 21.8798 19.2367 21.146C20.0285 20.4122 21.1024 20 22.2222 20H51.7778C52.8976 20 53.9715 20.4122 54.7633 21.146C55.5552 21.8798 56 22.8751 56 23.9128V43.4771C56 44.5148 55.5552 45.5101 54.7633 46.2439C53.9715 46.9777 52.8976 47.3899 51.7778 47.3899H28.4732C27.8404 47.39 27.2157 47.5219 26.6452 47.7759C26.0748 48.0299 25.5733 48.3994 25.1778 48.8573L20.2568 54.5583C20.093 54.7485 19.8695 54.8868 19.6172 54.9542C19.3649 55.0215 19.0962 55.0145 18.8484 54.9341C18.6005 54.8538 18.3858 54.704 18.2338 54.5056C18.0818 54.3072 18.0001 54.0699 18 53.8266Z" stroke="#FF6200" stroke-opacity="0.8" stroke-width="3"/>
</svg>
