<svg width="60" height="60" viewBox="0 0 60 60" fill="none" xmlns="http://www.w3.org/2000/svg">
<rect width="60" height="60" rx="17" fill="#C9F5CE"/>
<path d="M15 46.0439V16.5088C15 15.4842 15.3512 14.5016 15.9763 13.777C16.6014 13.0525 17.4493 12.6455 18.3333 12.6455H41.6667C42.5507 12.6455 43.3986 13.0525 44.0237 13.777C44.6488 14.5016 45 15.4842 45 16.5088V35.8254C45 36.85 44.6488 37.8327 44.0237 38.5572C43.3986 39.2817 42.5507 39.6887 41.6667 39.6887H23.2683C22.7687 39.6888 22.2755 39.819 21.8252 40.0698C21.3749 40.3206 20.9789 40.6855 20.6667 41.1375L16.7817 46.7663C16.6524 46.9541 16.4759 47.0907 16.2767 47.1572C16.0775 47.2237 15.8654 47.2168 15.6698 47.1374C15.4741 47.0581 15.3045 46.9103 15.1846 46.7143C15.0646 46.5184 15.0001 46.2841 15 46.0439Z" stroke="#2DFF45" stroke-width="3"/>
</svg>
