<svg width="60" height="60" viewBox="0 0 60 60" fill="none" xmlns="http://www.w3.org/2000/svg">
<rect width="60" height="60" rx="17" fill="#ECC9F5"/>
<path d="M30 16C38.2845 16 45 22.0956 45 29.6154C45 37.1352 38.2845 43.2308 30 43.2308C21.7155 43.2308 15 37.1352 15 29.6154C15 22.0956 21.7155 16 30 16ZM30 18.7231C26.8174 18.7231 23.7652 19.8707 21.5147 21.9134C19.2643 23.9561 18 26.7266 18 29.6154C18 32.5042 19.2643 35.2747 21.5147 37.3174C23.7652 39.3601 26.8174 40.5077 30 40.5077C33.1826 40.5077 36.2348 39.3601 38.4853 37.3174C40.7357 35.2747 42 32.5042 42 29.6154C42 26.7266 40.7357 23.9561 38.4853 21.9134C36.2348 19.8707 33.1826 18.7231 30 18.7231ZM30 21.4462C30.3674 21.4462 30.722 21.5686 30.9966 21.7902C31.2711 22.0118 31.4465 22.3172 31.4895 22.6484L31.5 22.8077V29.0517L35.5605 32.7374C35.8295 32.9824 35.9857 33.3112 35.9973 33.657C36.009 34.0027 35.8752 34.3395 35.6231 34.599C35.3711 34.8585 35.0197 35.0211 34.6403 35.0539C34.2609 35.0867 33.882 34.9872 33.5805 34.7756L33.4395 34.6626L28.9395 30.578C28.7064 30.3662 28.5566 30.0906 28.5135 29.7937L28.5 29.6154V22.8077C28.5 22.4466 28.658 22.1003 28.9393 21.8449C29.2206 21.5896 29.6022 21.4462 30 21.4462Z" fill="#D120FF"/>
</svg>
