<svg width="18" height="21" viewBox="0 0 18 21" fill="none" xmlns="http://www.w3.org/2000/svg">
<path d="M9 20.3061C6.39375 19.7139 4.242 18.3642 2.54475 16.2571C0.847501 14.15 -0.000749503 11.8107 4.96908e-07 9.23929V3.04592L9 0L18 3.04592V9.23929C18 11.8114 17.1518 14.151 15.4553 16.2581C13.7588 18.3652 11.607 19.7145 9 20.3061ZM9 18.174C10.95 17.6156 12.5625 16.4987 13.8375 14.8235C15.1125 13.1482 15.75 11.2868 15.75 9.23929V4.44196L9 2.15753L2.25 4.44196V9.23929C2.25 11.2868 2.8875 13.1482 4.1625 14.8235C5.4375 16.4987 7.05 17.6156 9 18.174Z" fill="white"/>
</svg>
