<svg width="20" height="21" viewBox="0 0 20 21" fill="none" xmlns="http://www.w3.org/2000/svg">
<path fill-rule="evenodd" clip-rule="evenodd" d="M11.3689 0.334732C12.0712 -0.364731 13.439 0.113266 13.3279 1.01943L12.5434 7.38474H18.8893C19.1004 7.3848 19.3071 7.43482 19.4853 7.52894C19.6634 7.62306 19.8056 7.75738 19.8951 7.91617C19.9847 8.07496 20.0179 8.25165 19.9909 8.42555C19.9639 8.59945 19.8778 8.76336 19.7426 8.89809L8.63105 19.9714C7.9288 20.6709 6.56097 20.1929 6.67208 19.2867L7.45656 12.9214H1.11074C0.899606 12.9213 0.692863 12.8713 0.514721 12.7772C0.33658 12.6831 0.194415 12.5487 0.104874 12.39C0.0153324 12.2312 -0.0178789 12.0545 0.00912894 11.8806C0.0361368 11.7067 0.122246 11.5428 0.257373 11.408L11.3689 0.334732ZM3.48306 11.0758H9.42553C9.48765 11.0758 9.54908 11.0866 9.60585 11.1076C9.66263 11.1285 9.71349 11.1591 9.75516 11.1973C9.79683 11.2356 9.82838 11.2807 9.84778 11.3297C9.86717 11.3787 9.87398 11.4305 9.86777 11.4819L9.2533 16.4695L16.5169 9.23029H10.5745C10.5124 9.23029 10.4509 9.21947 10.3942 9.19855C10.3374 9.17762 10.2865 9.14704 10.2448 9.10878C10.2032 9.07053 10.1716 9.02544 10.1522 8.97644C10.1328 8.92743 10.126 8.87559 10.1322 8.82427L10.7467 3.83759L3.48306 11.0758Z" fill="white"/>
</svg>
